<svg xmlns="http://www.w3.org/2000/svg" xmlns:xlink="http://www.w3.org/1999/xlink" version="1.1" x="0px" y="0px" viewBox="0 0 100 100" enable-background="new 0 0 100 100" xml:space="preserve"><g><path fill="#fff" d="M18.652,7.175L6.854,8.154C6.642,8.171,6.459,8.198,6.312,8.229C6.165,8.262,6.052,8.3,5.979,8.342   C5.905,8.384,5.872,8.43,5.881,8.476C5.89,8.523,5.944,8.571,6.047,8.618l6.042,2.75c0.112,0.051,0.264,0.096,0.443,0.133   c0.18,0.037,0.386,0.066,0.607,0.087c0.222,0.021,0.455,0.032,0.691,0.034c0.235,0.001,0.47-0.006,0.692-0.026L26.854,10.5   c0.214-0.019,0.393-0.047,0.534-0.082c0.141-0.034,0.242-0.076,0.302-0.121c0.06-0.044,0.078-0.093,0.05-0.142   c-0.028-0.05-0.101-0.1-0.222-0.149l-6.576-2.632c-0.111-0.044-0.259-0.083-0.431-0.116C20.34,7.226,20.144,7.2,19.937,7.182   c-0.208-0.018-0.426-0.027-0.644-0.029C19.075,7.151,18.857,7.158,18.652,7.175"/><path fill="#fff" d="M36.764,5.673L25.584,6.6c-0.201,0.017-0.371,0.042-0.504,0.072c-0.133,0.031-0.231,0.067-0.29,0.107   c-0.058,0.04-0.077,0.083-0.053,0.127c0.024,0.045,0.091,0.09,0.205,0.134l6.713,2.602c0.124,0.048,0.286,0.09,0.471,0.126   c0.186,0.035,0.395,0.062,0.616,0.082c0.22,0.02,0.452,0.031,0.681,0.033s0.455-0.006,0.665-0.025l11.649-1.034   c0.202-0.019,0.368-0.045,0.495-0.078c0.126-0.032,0.213-0.071,0.258-0.113c0.045-0.042,0.048-0.088,0.006-0.135   c-0.042-0.046-0.127-0.094-0.26-0.14l-7.183-2.494c-0.122-0.042-0.278-0.08-0.455-0.11c-0.176-0.03-0.375-0.055-0.581-0.071   c-0.208-0.017-0.423-0.027-0.636-0.028C37.168,5.649,36.958,5.657,36.764,5.673"/><path fill="#fff" d="M53.816,4.258L43.204,5.139c-0.191,0.015-0.348,0.039-0.468,0.068c-0.121,0.029-0.206,0.063-0.251,0.101   c-0.045,0.038-0.051,0.079-0.014,0.121c0.036,0.042,0.115,0.085,0.239,0.127l7.301,2.467c0.134,0.045,0.304,0.085,0.495,0.119   c0.189,0.033,0.402,0.06,0.623,0.078s0.448,0.029,0.672,0.031c0.222,0.002,0.439-0.006,0.637-0.023l11.026-0.98   c0.192-0.016,0.347-0.042,0.46-0.073c0.113-0.031,0.187-0.068,0.218-0.108s0.021-0.083-0.033-0.128   c-0.053-0.044-0.15-0.089-0.292-0.133l-7.716-2.367c-0.131-0.04-0.294-0.075-0.475-0.104c-0.182-0.029-0.381-0.052-0.588-0.068   c-0.206-0.017-0.42-0.025-0.628-0.027C54.202,4.237,54.001,4.243,53.816,4.258"/><path fill="#fff" d="M29.2,11.451l-12.48,1.13c-0.225,0.02-0.416,0.051-0.568,0.088s-0.266,0.082-0.338,0.13   c-0.071,0.048-0.1,0.101-0.081,0.155c0.018,0.054,0.084,0.109,0.202,0.163l7.007,3.188c0.129,0.059,0.303,0.111,0.503,0.154   c0.201,0.043,0.429,0.078,0.671,0.102c0.242,0.023,0.498,0.038,0.751,0.04c0.253,0.002,0.506-0.008,0.742-0.031l13.074-1.276   c0.227-0.022,0.414-0.055,0.558-0.095c0.145-0.04,0.246-0.088,0.3-0.14c0.056-0.052,0.065-0.108,0.025-0.166   c-0.04-0.057-0.129-0.116-0.27-0.172l-7.6-3.042c-0.128-0.051-0.294-0.096-0.485-0.133c-0.19-0.037-0.406-0.066-0.631-0.087   c-0.226-0.02-0.463-0.032-0.697-0.034C29.649,11.422,29.417,11.432,29.2,11.451"/><path fill="#fff" d="M48.3,9.721l-11.78,1.067c-0.212,0.019-0.389,0.048-0.526,0.083c-0.137,0.036-0.234,0.078-0.289,0.123   c-0.054,0.046-0.066,0.095-0.031,0.146c0.035,0.052,0.116,0.104,0.247,0.154l7.752,3.004c0.144,0.056,0.327,0.104,0.534,0.146   c0.207,0.041,0.438,0.073,0.68,0.096c0.241,0.022,0.493,0.035,0.739,0.038c0.247,0.002,0.489-0.008,0.71-0.029l12.297-1.2   c0.214-0.021,0.385-0.052,0.514-0.089c0.127-0.038,0.212-0.083,0.25-0.132c0.039-0.049,0.03-0.102-0.023-0.156   c-0.056-0.054-0.159-0.109-0.312-0.163l-8.27-2.871c-0.139-0.048-0.313-0.091-0.51-0.125c-0.196-0.035-0.414-0.063-0.639-0.083   s-0.459-0.03-0.688-0.032C48.727,9.695,48.504,9.703,48.3,9.721"/><path fill="#fff" d="M66.216,8.099L55.074,9.108c-0.201,0.018-0.364,0.045-0.485,0.078c-0.123,0.033-0.206,0.073-0.244,0.117   c-0.041,0.043-0.037,0.09,0.01,0.138c0.049,0.049,0.144,0.098,0.285,0.146l8.396,2.836c0.155,0.053,0.347,0.099,0.56,0.137   c0.213,0.038,0.447,0.068,0.688,0.09c0.241,0.021,0.489,0.033,0.729,0.035c0.24,0.002,0.471-0.007,0.68-0.028l11.592-1.131   c0.201-0.02,0.359-0.049,0.474-0.085c0.113-0.035,0.182-0.078,0.207-0.124c0.022-0.046,0.001-0.097-0.068-0.148   c-0.068-0.051-0.185-0.103-0.349-0.153l-8.846-2.714c-0.15-0.046-0.332-0.086-0.533-0.119c-0.2-0.033-0.42-0.06-0.645-0.078   s-0.455-0.029-0.677-0.031C66.623,8.074,66.409,8.082,66.216,8.099"/><path fill="#fff" d="M41.385,16.39l-13.239,1.319c-0.239,0.023-0.439,0.059-0.597,0.103c-0.157,0.044-0.272,0.095-0.34,0.152   s-0.088,0.118-0.058,0.181c0.03,0.063,0.113,0.128,0.25,0.191l8.22,3.739c0.153,0.07,0.351,0.131,0.577,0.182   c0.227,0.051,0.482,0.091,0.75,0.12c0.268,0.028,0.548,0.045,0.824,0.047c0.275,0.002,0.547-0.009,0.798-0.037l13.9-1.504   c0.24-0.026,0.436-0.064,0.584-0.112c0.146-0.047,0.245-0.103,0.294-0.164c0.048-0.061,0.044-0.127-0.013-0.195   c-0.055-0.066-0.165-0.135-0.33-0.201l-8.88-3.556c-0.15-0.06-0.339-0.112-0.553-0.155c-0.213-0.043-0.451-0.078-0.699-0.102   c-0.248-0.024-0.506-0.038-0.758-0.039C41.863,16.357,41.615,16.367,41.385,16.39"/><path fill="#fff" d="M61.571,14.378l-12.44,1.239c-0.225,0.022-0.408,0.056-0.548,0.096c-0.14,0.041-0.235,0.09-0.284,0.143   c-0.049,0.053-0.051,0.111-0.002,0.17c0.048,0.06,0.147,0.121,0.3,0.179l9.049,3.507c0.169,0.065,0.378,0.123,0.612,0.17   c0.233,0.047,0.49,0.085,0.758,0.112c0.267,0.026,0.541,0.041,0.81,0.043c0.268,0.002,0.526-0.009,0.763-0.034l13.006-1.408   c0.226-0.024,0.403-0.06,0.532-0.104c0.13-0.045,0.209-0.097,0.238-0.155c0.028-0.057,0.007-0.118-0.065-0.182   c-0.073-0.063-0.199-0.127-0.378-0.189l-9.617-3.339c-0.162-0.056-0.36-0.105-0.58-0.146c-0.219-0.041-0.46-0.073-0.707-0.096   c-0.246-0.022-0.5-0.036-0.746-0.037C62.025,14.348,61.787,14.356,61.571,14.378"/><path fill="#fff" d="M80.425,12.5l-11.716,1.167c-0.211,0.021-0.38,0.052-0.503,0.09c-0.124,0.039-0.203,0.084-0.236,0.134   c-0.031,0.05-0.018,0.105,0.046,0.16c0.064,0.056,0.178,0.113,0.343,0.169l9.756,3.296c0.183,0.062,0.4,0.115,0.641,0.16   c0.239,0.044,0.5,0.08,0.766,0.105c0.266,0.025,0.536,0.039,0.796,0.041c0.259,0.002,0.506-0.007,0.727-0.032l12.204-1.32   c0.211-0.023,0.373-0.057,0.486-0.099c0.112-0.041,0.175-0.091,0.188-0.145s-0.024-0.112-0.113-0.171s-0.228-0.119-0.418-0.178   l-10.245-3.143c-0.172-0.053-0.378-0.1-0.604-0.138c-0.223-0.038-0.466-0.069-0.712-0.09c-0.245-0.021-0.495-0.034-0.733-0.035   C80.855,12.471,80.628,12.479,80.425,12.5"/><path fill="#fff" d="M5.168,50.549l0.417,11.609c0.007,0.202,0.034,0.414,0.076,0.62c0.042,0.208,0.099,0.411,0.167,0.602   c0.069,0.189,0.148,0.364,0.236,0.513c0.087,0.149,0.182,0.271,0.28,0.356l5.767,5.048c0.106,0.092,0.207,0.14,0.297,0.142   c0.091,0.003,0.171-0.036,0.238-0.115c0.066-0.078,0.119-0.194,0.153-0.345c0.035-0.151,0.05-0.336,0.044-0.548l-0.359-12.188   c-0.006-0.218-0.035-0.443-0.08-0.663c-0.046-0.22-0.109-0.437-0.185-0.635s-0.164-0.379-0.26-0.532   c-0.096-0.152-0.2-0.275-0.308-0.357l-5.824-4.468c-0.099-0.076-0.191-0.106-0.274-0.094c-0.083,0.011-0.155,0.063-0.214,0.151   c-0.06,0.088-0.106,0.21-0.136,0.363C5.174,50.159,5.161,50.342,5.168,50.549"/><path fill="#fff" d="M4.482,31.412l0.431,12.009c0.007,0.21,0.034,0.426,0.077,0.634c0.042,0.209,0.101,0.412,0.17,0.597   c0.069,0.185,0.15,0.354,0.238,0.494c0.089,0.14,0.185,0.252,0.284,0.325l5.839,4.302c0.108,0.08,0.209,0.111,0.302,0.1   c0.092-0.012,0.173-0.066,0.241-0.158c0.067-0.092,0.121-0.223,0.155-0.384c0.035-0.163,0.051-0.358,0.044-0.579L11.891,36.12   c-0.007-0.226-0.036-0.456-0.082-0.678c-0.047-0.222-0.11-0.436-0.187-0.63c-0.077-0.194-0.167-0.368-0.265-0.511   c-0.097-0.143-0.202-0.254-0.312-0.322l-5.899-3.68c-0.1-0.062-0.193-0.078-0.277-0.052c-0.083,0.025-0.157,0.092-0.217,0.193   c-0.06,0.101-0.106,0.236-0.136,0.4C4.487,31.004,4.474,31.197,4.482,31.412"/><path fill="#fff" d="M3.777,11.76l0.445,12.427c0.008,0.217,0.036,0.437,0.079,0.646c0.043,0.21,0.102,0.411,0.172,0.592   c0.07,0.182,0.152,0.344,0.242,0.475c0.089,0.131,0.186,0.232,0.286,0.292l5.915,3.507c0.11,0.065,0.213,0.081,0.306,0.053   c0.093-0.027,0.175-0.098,0.243-0.205c0.069-0.107,0.123-0.252,0.157-0.426c0.035-0.175,0.051-0.38,0.044-0.609l-0.386-13.097   c-0.006-0.234-0.037-0.469-0.083-0.692c-0.047-0.223-0.112-0.436-0.19-0.625c-0.078-0.189-0.168-0.356-0.268-0.488   c-0.098-0.131-0.206-0.23-0.316-0.283l-5.974-2.838c-0.101-0.048-0.196-0.048-0.281-0.007c-0.084,0.041-0.158,0.122-0.219,0.238   c-0.061,0.115-0.108,0.264-0.138,0.439C3.781,11.334,3.769,11.537,3.777,11.76"/><path fill="#fff" d="M14.574,57.87l0.341,12.353c0.006,0.215,0.033,0.441,0.08,0.663c0.046,0.225,0.11,0.444,0.187,0.649   c0.077,0.208,0.167,0.399,0.266,0.562c0.1,0.166,0.208,0.303,0.32,0.401l6.64,5.811c0.123,0.106,0.239,0.163,0.345,0.175   c0.105,0.009,0.2-0.026,0.278-0.104c0.079-0.077,0.142-0.198,0.184-0.354c0.042-0.158,0.062-0.352,0.058-0.581l-0.262-13.009   c-0.004-0.23-0.034-0.474-0.085-0.713c-0.051-0.238-0.121-0.472-0.207-0.689c-0.085-0.216-0.187-0.415-0.296-0.585   c-0.111-0.169-0.231-0.307-0.355-0.402l-6.719-5.155c-0.113-0.087-0.22-0.124-0.316-0.117c-0.096,0.006-0.181,0.058-0.251,0.146   c-0.069,0.088-0.125,0.216-0.161,0.376C14.585,57.456,14.568,57.648,14.574,57.87"/><path fill="#fff" d="M14.011,37.467l0.353,12.809c0.006,0.225,0.035,0.456,0.082,0.68s0.112,0.443,0.19,0.646   c0.078,0.202,0.169,0.386,0.271,0.54c0.101,0.155,0.21,0.28,0.324,0.364l6.741,4.966c0.125,0.092,0.243,0.132,0.351,0.126   s0.203-0.059,0.283-0.152s0.144-0.229,0.186-0.399c0.042-0.171,0.064-0.378,0.06-0.615l-0.272-13.52   c-0.004-0.241-0.035-0.489-0.086-0.729c-0.052-0.24-0.124-0.473-0.211-0.685c-0.087-0.212-0.189-0.404-0.302-0.562   c-0.111-0.158-0.234-0.283-0.36-0.362l-6.824-4.256c-0.114-0.071-0.223-0.093-0.32-0.069c-0.097,0.022-0.183,0.089-0.254,0.193   c-0.07,0.104-0.126,0.246-0.163,0.419C14.021,37.033,14.004,37.237,14.011,37.467"/><path fill="#fff" d="M13.431,16.463l0.367,13.288c0.007,0.233,0.036,0.468,0.084,0.694c0.048,0.227,0.113,0.444,0.193,0.641   c0.08,0.197,0.173,0.374,0.274,0.519c0.103,0.145,0.214,0.258,0.33,0.326l6.845,4.06c0.127,0.076,0.247,0.098,0.356,0.074   c0.109-0.024,0.207-0.096,0.288-0.207c0.081-0.111,0.145-0.263,0.188-0.448c0.043-0.186,0.065-0.404,0.06-0.65l-0.283-14.056   c-0.005-0.252-0.037-0.505-0.089-0.747c-0.052-0.242-0.126-0.473-0.214-0.679s-0.192-0.389-0.307-0.536   c-0.114-0.146-0.238-0.255-0.367-0.317l-6.929-3.291c-0.117-0.056-0.227-0.059-0.325-0.019c-0.099,0.039-0.186,0.124-0.258,0.245   c-0.072,0.121-0.128,0.277-0.166,0.464C13.441,16.01,13.424,16.225,13.431,16.463"/><path fill="#fff" d="M25.413,66.306l0.236,13.192c0.004,0.231,0.034,0.475,0.085,0.716c0.052,0.24,0.123,0.481,0.21,0.706   c0.087,0.227,0.19,0.437,0.304,0.621c0.114,0.182,0.239,0.337,0.369,0.453l7.724,6.759c0.144,0.125,0.28,0.196,0.405,0.215   c0.125,0.021,0.237-0.01,0.33-0.085c0.094-0.075,0.17-0.198,0.221-0.363c0.052-0.166,0.08-0.371,0.078-0.614L35.25,73.962   c-0.002-0.25-0.035-0.512-0.09-0.77c-0.057-0.26-0.137-0.517-0.235-0.756c-0.098-0.238-0.214-0.46-0.342-0.65   c-0.128-0.189-0.268-0.348-0.414-0.459l-7.834-6.011c-0.132-0.102-0.257-0.148-0.369-0.148c-0.113,0-0.213,0.048-0.296,0.14   c-0.083,0.088-0.149,0.221-0.193,0.389C25.431,65.864,25.409,66.069,25.413,66.306"/><path fill="#fff" d="M25.021,44.463l0.246,13.72c0.004,0.24,0.035,0.488,0.087,0.731c0.051,0.244,0.125,0.481,0.213,0.702   c0.089,0.221,0.194,0.424,0.31,0.597c0.116,0.172,0.243,0.313,0.375,0.412l7.866,5.793c0.146,0.108,0.286,0.161,0.413,0.161   c0.127,0.002,0.241-0.048,0.336-0.142c0.096-0.095,0.173-0.236,0.226-0.416c0.053-0.181,0.081-0.401,0.079-0.655L35.04,50.831   c-0.002-0.261-0.035-0.529-0.093-0.79c-0.058-0.261-0.139-0.516-0.24-0.75c-0.1-0.234-0.219-0.446-0.349-0.623   c-0.13-0.177-0.273-0.319-0.421-0.412l-7.98-4.978c-0.135-0.084-0.261-0.113-0.376-0.094c-0.114,0.019-0.216,0.085-0.3,0.192   s-0.152,0.256-0.197,0.439C25.04,44,25.016,44.218,25.021,44.463"/><path fill="#fff" d="M24.924,21.913l0.256,14.274c0.005,0.249,0.036,0.503,0.089,0.748c0.052,0.245,0.127,0.481,0.217,0.697   c0.091,0.216,0.197,0.411,0.315,0.571c0.118,0.161,0.248,0.288,0.382,0.368l8.011,4.751c0.149,0.088,0.292,0.12,0.421,0.1   c0.13-0.02,0.246-0.09,0.343-0.206c0.098-0.114,0.176-0.273,0.229-0.471c0.054-0.197,0.083-0.431,0.08-0.695l-0.137-15.164   c-0.003-0.272-0.037-0.546-0.095-0.81c-0.059-0.263-0.143-0.516-0.245-0.743c-0.102-0.227-0.223-0.429-0.356-0.593   c-0.133-0.163-0.279-0.287-0.431-0.358l-8.129-3.862c-0.137-0.064-0.266-0.074-0.382-0.035c-0.117,0.039-0.22,0.125-0.306,0.251   c-0.086,0.126-0.154,0.292-0.2,0.491S24.919,21.658,24.924,21.913"/><path fill="#fff" d="M53.511,22.979l-14.146,1.579c-0.256,0.028-0.5,0.112-0.721,0.24c-0.223,0.127-0.422,0.298-0.59,0.5   s-0.303,0.436-0.396,0.688c-0.093,0.252-0.144,0.524-0.142,0.804l0.104,15.518c0.001,0.27,0.055,0.521,0.15,0.743   c0.094,0.222,0.23,0.414,0.397,0.569c0.167,0.154,0.366,0.27,0.584,0.339c0.219,0.068,0.46,0.089,0.711,0.054l13.906-1.958   c0.241-0.034,0.472-0.12,0.682-0.247c0.209-0.126,0.397-0.293,0.557-0.489c0.159-0.195,0.289-0.42,0.38-0.661   c0.09-0.242,0.143-0.5,0.145-0.764l0.135-15.138c0.002-0.271-0.045-0.525-0.134-0.751c-0.087-0.227-0.215-0.425-0.374-0.585   c-0.159-0.161-0.349-0.285-0.561-0.361S53.755,22.952,53.511,22.979"/><path fill="#fff" d="M74.985,20.582l-13.221,1.476c-0.24,0.027-0.469,0.107-0.678,0.229c-0.21,0.123-0.399,0.287-0.559,0.482   c-0.16,0.195-0.29,0.421-0.381,0.665c-0.091,0.245-0.145,0.508-0.147,0.778l-0.195,15.037c-0.003,0.262,0.04,0.506,0.124,0.721   s0.208,0.403,0.36,0.553s0.335,0.264,0.538,0.332s0.428,0.089,0.662,0.056l13.014-1.833c0.224-0.032,0.441-0.114,0.639-0.236   c0.198-0.122,0.377-0.283,0.531-0.472c0.151-0.189,0.277-0.406,0.365-0.64c0.089-0.234,0.142-0.485,0.149-0.74l0.403-14.679   c0.007-0.264-0.032-0.51-0.109-0.729c-0.078-0.22-0.194-0.412-0.339-0.568c-0.146-0.157-0.32-0.277-0.517-0.352   C75.431,20.586,75.215,20.557,74.985,20.582"/><path fill="#fff" d="M94.94,18.355l-12.39,1.383c-0.223,0.024-0.438,0.102-0.635,0.219c-0.198,0.118-0.378,0.277-0.531,0.466   s-0.28,0.407-0.37,0.644c-0.089,0.237-0.143,0.492-0.15,0.754l-0.457,14.587c-0.007,0.254,0.03,0.491,0.104,0.701   c0.075,0.209,0.187,0.392,0.326,0.538c0.141,0.147,0.31,0.258,0.498,0.325c0.189,0.067,0.396,0.089,0.617,0.057l12.207-1.718   c0.212-0.03,0.415-0.109,0.603-0.227c0.188-0.117,0.358-0.272,0.505-0.456c0.146-0.183,0.267-0.393,0.355-0.62   c0.087-0.227,0.141-0.47,0.151-0.719l0.639-14.251c0.012-0.256-0.021-0.495-0.09-0.708c-0.068-0.213-0.174-0.4-0.308-0.553   c-0.133-0.152-0.295-0.27-0.477-0.344C95.357,18.36,95.154,18.331,94.94,18.355"/><path fill="#fff" d="M53.334,47.033l-13.845,2.055c-0.25,0.038-0.489,0.127-0.706,0.258c-0.217,0.13-0.413,0.302-0.577,0.502   c-0.164,0.201-0.296,0.429-0.387,0.675c-0.091,0.245-0.141,0.508-0.139,0.773l0.1,14.86c0.002,0.26,0.054,0.498,0.147,0.707   c0.092,0.209,0.226,0.389,0.389,0.53c0.163,0.142,0.357,0.245,0.572,0.302c0.214,0.06,0.45,0.068,0.695,0.026L53.2,65.319   c0.235-0.04,0.461-0.133,0.666-0.263c0.205-0.129,0.391-0.295,0.547-0.488c0.155-0.193,0.283-0.413,0.371-0.649   c0.089-0.235,0.139-0.484,0.141-0.737l0.129-14.514c0.002-0.26-0.044-0.501-0.13-0.714c-0.085-0.213-0.211-0.398-0.366-0.546   c-0.155-0.148-0.342-0.259-0.549-0.325C53.801,47.018,53.573,46.998,53.334,47.033"/><path fill="#fff" d="M74.376,43.91l-12.957,1.923c-0.235,0.035-0.46,0.121-0.665,0.247c-0.204,0.125-0.39,0.291-0.547,0.484   c-0.156,0.194-0.284,0.415-0.373,0.652s-0.14,0.492-0.144,0.75l-0.188,14.421c-0.004,0.252,0.04,0.482,0.123,0.688   c0.082,0.202,0.202,0.377,0.352,0.517c0.149,0.138,0.329,0.241,0.527,0.298c0.199,0.057,0.419,0.068,0.65,0.028l12.757-2.252   c0.221-0.038,0.434-0.126,0.627-0.251c0.195-0.124,0.371-0.286,0.521-0.473c0.149-0.186,0.271-0.399,0.359-0.628   c0.087-0.228,0.139-0.47,0.145-0.716l0.389-14.093c0.007-0.252-0.032-0.486-0.108-0.694c-0.076-0.207-0.189-0.387-0.332-0.532   s-0.313-0.254-0.506-0.318C74.813,43.897,74.601,43.877,74.376,43.91"/><path fill="#fff" d="M93.956,41.004l-12.158,1.805c-0.22,0.032-0.431,0.114-0.625,0.235s-0.37,0.28-0.521,0.468   c-0.149,0.187-0.273,0.401-0.361,0.631c-0.088,0.231-0.14,0.477-0.148,0.728l-0.438,14.008c-0.009,0.244,0.029,0.47,0.103,0.668   s0.183,0.369,0.321,0.505c0.138,0.135,0.303,0.235,0.488,0.293c0.186,0.057,0.39,0.068,0.605,0.03l11.982-2.114   c0.209-0.036,0.409-0.12,0.593-0.239c0.185-0.12,0.352-0.276,0.496-0.457c0.143-0.182,0.262-0.388,0.347-0.609   c0.086-0.221,0.139-0.456,0.149-0.694l0.613-13.699c0.011-0.246-0.021-0.474-0.089-0.675c-0.066-0.202-0.171-0.378-0.302-0.519   c-0.131-0.142-0.289-0.248-0.469-0.312C94.366,40.993,94.166,40.973,93.956,41.004"/><path fill="#fff" d="M53.165,70.052l-13.558,2.489c-0.244,0.045-0.478,0.142-0.69,0.273c-0.213,0.133-0.404,0.305-0.564,0.503   c-0.161,0.198-0.291,0.423-0.379,0.661c-0.089,0.238-0.138,0.491-0.137,0.748l0.096,14.246c0.002,0.248,0.053,0.475,0.144,0.673   c0.091,0.196,0.221,0.363,0.38,0.493c0.16,0.13,0.35,0.222,0.561,0.27c0.21,0.047,0.44,0.049,0.681-0.003l13.338-2.807   c0.23-0.05,0.451-0.145,0.653-0.276c0.2-0.132,0.382-0.3,0.535-0.491c0.152-0.191,0.277-0.408,0.364-0.635   c0.087-0.229,0.136-0.473,0.138-0.716l0.124-13.927c0.003-0.25-0.044-0.479-0.127-0.681c-0.084-0.202-0.207-0.374-0.36-0.509   c-0.152-0.137-0.334-0.236-0.537-0.29C53.623,70.019,53.4,70.008,53.165,70.052"/><path fill="#fff" d="M73.793,66.264l-12.706,2.332c-0.23,0.043-0.45,0.134-0.65,0.262s-0.383,0.293-0.536,0.484   s-0.278,0.408-0.366,0.64c-0.087,0.231-0.137,0.478-0.14,0.725l-0.181,13.842c-0.004,0.243,0.04,0.463,0.12,0.657   c0.08,0.19,0.199,0.354,0.346,0.481c0.146,0.127,0.322,0.22,0.518,0.267s0.41,0.052,0.637,0.002l12.513-2.632   c0.218-0.048,0.425-0.14,0.616-0.265c0.19-0.128,0.362-0.288,0.51-0.475c0.146-0.185,0.268-0.395,0.353-0.616   s0.136-0.456,0.142-0.691l0.374-13.542c0.006-0.243-0.032-0.468-0.107-0.664c-0.074-0.195-0.187-0.363-0.326-0.498   c-0.141-0.132-0.309-0.231-0.498-0.285C74.222,66.232,74.013,66.224,73.793,66.264"/><path fill="#fff" d="M93.012,62.732l-11.938,2.192c-0.215,0.04-0.423,0.127-0.613,0.25c-0.189,0.123-0.363,0.283-0.51,0.468   c-0.146,0.184-0.268,0.395-0.354,0.619c-0.087,0.225-0.139,0.464-0.146,0.705L79.03,80.431c-0.007,0.236,0.03,0.451,0.102,0.638   c0.072,0.188,0.181,0.35,0.315,0.473c0.136,0.125,0.298,0.214,0.479,0.262c0.183,0.05,0.384,0.054,0.595,0.01l11.77-2.479   c0.202-0.042,0.399-0.13,0.58-0.253c0.181-0.12,0.346-0.275,0.486-0.455c0.142-0.18,0.258-0.383,0.342-0.6   c0.085-0.215,0.136-0.444,0.146-0.673l0.59-13.179c0.011-0.237-0.021-0.455-0.089-0.646c-0.065-0.191-0.167-0.355-0.296-0.486   c-0.13-0.13-0.286-0.227-0.461-0.281C93.414,62.707,93.219,62.695,93.012,62.732"/></g></svg>